<?xml version="1.0" encoding="UTF-8"?>
<svg version="1.1" xmlns="http://www.w3.org/2000/svg" width="100" height="100">
<path d="M0 0 C1.12470703 -0.04576172 2.24941406 -0.09152344 3.40820312 -0.13867188 C12.75968264 -0.26511751 12.75968264 -0.26511751 17.05078125 3.33984375 C19.75850758 6.0851484 20.805015 7.58420984 20.83984375 11.5546875 C20.78007085 14.05475419 20.71758201 16.55475746 20.65234375 19.0546875 C20.80583657 22.2967554 21.24974452 23.70421003 22.8125 26.4375 C22.8125 27.4275 22.8125 28.4175 22.8125 29.4375 C24.359375 29.4684375 24.359375 29.4684375 25.9375 29.5 C30.37368902 30.57327154 31.98328698 31.72793347 34.70703125 35.26953125 C36.73833033 39.25317432 36.6886827 43.11499867 35.8125 47.4375 C33.9375 50.5625 33.9375 50.5625 31.8125 52.4375 C31.1525 52.4375 30.4925 52.4375 29.8125 52.4375 C29.71582031 53.34242187 29.61914062 54.24734375 29.51953125 55.1796875 C28.71604536 60.77172413 27.06599681 66.14552992 25.5 71.5625 C25.05624023 73.16931641 25.05624023 73.16931641 24.60351562 74.80859375 C21.27232928 86.36342155 21.27232928 86.36342155 15.97836304 89.53701782 C13.53955949 90.55097812 11.77380244 90.7031682 9.13916016 90.72802734 C7.75719955 90.7471669 7.75719955 90.7471669 6.34732056 90.76669312 C5.3587204 90.76891876 4.37012024 90.77114441 3.3515625 90.7734375 C2.32823822 90.7800943 1.30491394 90.7867511 0.25057983 90.79360962 C-1.91300663 90.80372899 -4.07662427 90.80842686 -6.24023438 90.80810547 C-9.54349441 90.81247486 -12.84541413 90.84879259 -16.1484375 90.88671875 C-18.25259961 90.89258785 -20.35676805 90.89655662 -22.4609375 90.8984375 C-23.93776505 90.91999405 -23.93776505 90.91999405 -25.44442749 90.94198608 C-31.20673562 90.90376213 -34.69913144 90.41101879 -39.1875 86.4375 C-42.79765847 82.71383437 -44.07957506 79.32201368 -45.40625 74.34375 C-45.68317688 73.34003357 -45.68317688 73.34003357 -45.96569824 72.31604004 C-46.74858676 69.47701378 -47.5030916 66.63064292 -48.26025391 63.78466797 C-48.81995187 61.69739128 -49.39399945 59.61442291 -49.96875 57.53125 C-50.29939453 56.29052734 -50.63003906 55.04980469 -50.97070312 53.77148438 C-52.23339664 50.31174469 -53.81567617 48.21385887 -56.1875 45.4375 C-56.68359375 42.90234375 -56.68359375 42.90234375 -56.625 40.375 C-56.62371094 39.53839844 -56.62242188 38.70179687 -56.62109375 37.83984375 C-56.1875 35.4375 -56.1875 35.4375 -54.65234375 33.56640625 C-52.02892572 29.75370538 -53.2593179 25.19816521 -53.5703125 20.75 C-53.1875 17.4375 -53.1875 17.4375 -50.8671875 15.0625 C-44.57807049 11.24869143 -37.29681908 11.74692197 -30.1875 12.4375 C-27.45787186 13.52861152 -25.30493745 14.7372395 -22.921875 16.44140625 C-22.34953125 16.77011719 -21.7771875 17.09882813 -21.1875 17.4375 C-20.1975 17.1075 -19.2075 16.7775 -18.1875 16.4375 C-18.23390625 15.77363281 -18.2803125 15.10976563 -18.328125 14.42578125 C-18.62541625 7.15276321 -18.62541625 7.15276321 -16.3125 3.375 C-11.63144057 -0.89302477 -6.05067506 0.0988561 0 0 Z " fill="#729E4D" transform="translate(61.1875,5.5625)"/>
<path d="M0 0 C1.12470703 -0.04576172 2.24941406 -0.09152344 3.40820312 -0.13867188 C12.75968264 -0.26511751 12.75968264 -0.26511751 17.05078125 3.33984375 C19.75850758 6.0851484 20.805015 7.58420984 20.83984375 11.5546875 C20.78007085 14.05475419 20.71758201 16.55475746 20.65234375 19.0546875 C20.80583657 22.2967554 21.24974452 23.70421003 22.8125 26.4375 C22.8125 27.4275 22.8125 28.4175 22.8125 29.4375 C24.359375 29.4684375 24.359375 29.4684375 25.9375 29.5 C30.37368902 30.57327154 31.98328698 31.72793347 34.70703125 35.26953125 C36.73833033 39.25317432 36.6886827 43.11499867 35.8125 47.4375 C33.9375 50.5625 33.9375 50.5625 31.8125 52.4375 C31.1525 52.4375 30.4925 52.4375 29.8125 52.4375 C29.71582031 53.34242187 29.61914062 54.24734375 29.51953125 55.1796875 C28.71604536 60.77172413 27.06599681 66.14552992 25.5 71.5625 C25.05624023 73.16931641 25.05624023 73.16931641 24.60351562 74.80859375 C21.27232928 86.36342155 21.27232928 86.36342155 15.97836304 89.53701782 C13.53955949 90.55097812 11.77380244 90.7031682 9.13916016 90.72802734 C7.75719955 90.7471669 7.75719955 90.7471669 6.34732056 90.76669312 C5.3587204 90.76891876 4.37012024 90.77114441 3.3515625 90.7734375 C2.32823822 90.7800943 1.30491394 90.7867511 0.25057983 90.79360962 C-1.91300663 90.80372899 -4.07662427 90.80842686 -6.24023438 90.80810547 C-9.54349441 90.81247486 -12.84541413 90.84879259 -16.1484375 90.88671875 C-18.25259961 90.89258785 -20.35676805 90.89655662 -22.4609375 90.8984375 C-23.93776505 90.91999405 -23.93776505 90.91999405 -25.44442749 90.94198608 C-31.20673562 90.90376213 -34.69913144 90.41101879 -39.1875 86.4375 C-42.79765847 82.71383437 -44.07957506 79.32201368 -45.40625 74.34375 C-45.68317688 73.34003357 -45.68317688 73.34003357 -45.96569824 72.31604004 C-46.74858676 69.47701378 -47.5030916 66.63064292 -48.26025391 63.78466797 C-48.81995187 61.69739128 -49.39399945 59.61442291 -49.96875 57.53125 C-50.29939453 56.29052734 -50.63003906 55.04980469 -50.97070312 53.77148438 C-52.23339664 50.31174469 -53.81567617 48.21385887 -56.1875 45.4375 C-56.68359375 42.90234375 -56.68359375 42.90234375 -56.625 40.375 C-56.62371094 39.53839844 -56.62242188 38.70179687 -56.62109375 37.83984375 C-56.1875 35.4375 -56.1875 35.4375 -54.65234375 33.56640625 C-52.02892572 29.75370538 -53.2593179 25.19816521 -53.5703125 20.75 C-53.1875 17.4375 -53.1875 17.4375 -50.8671875 15.0625 C-44.57807049 11.24869143 -37.29681908 11.74692197 -30.1875 12.4375 C-27.45787186 13.52861152 -25.30493745 14.7372395 -22.921875 16.44140625 C-22.34953125 16.77011719 -21.7771875 17.09882813 -21.1875 17.4375 C-20.1975 17.1075 -19.2075 16.7775 -18.1875 16.4375 C-18.23390625 15.77363281 -18.2803125 15.10976563 -18.328125 14.42578125 C-18.62541625 7.15276321 -18.62541625 7.15276321 -16.3125 3.375 C-11.63144057 -0.89302477 -6.05067506 0.0988561 0 0 Z M-13.1875 8.4375 C-12.92926007 11.91236472 -12.92926007 11.91236472 -12.1875 15.4375 C-12.1875 16.7575 -12.1875 18.0775 -12.1875 19.4375 C-12.950625 19.375625 -13.71375 19.31375 -14.5 19.25 C-17.23650001 19.13169101 -17.23650001 19.13169101 -18.625 21 C-20.1875 22.4375 -20.1875 22.4375 -22.9375 22.375 C-26.1875 21.4375 -26.1875 21.4375 -29.4375 19.375 C-33.82108964 16.70588097 -38.19388158 16.70364054 -43.1875 17.4375 C-46.22215702 18.74977434 -46.22215702 18.74977434 -48.1875 20.4375 C-47.64898032 25.71499285 -46.41406164 29.69395564 -44.1875 34.4375 C-44.97125 34.56125 -45.755 34.685 -46.5625 34.8125 C-49.32807822 35.22867993 -49.32807822 35.22867993 -51.1875 37.4375 C-50.86423447 41.03429066 -50.86423447 41.03429066 -50.1875 44.4375 C-49.1975 44.7675 -48.2075 45.0975 -47.1875 45.4375 C-46.65157599 47.51287108 -46.13747883 49.59624816 -45.73291016 51.70117188 C-44.72305097 56.76764535 -43.27368271 61.71712642 -41.875 66.6875 C-41.45057617 68.28078125 -41.45057617 68.28078125 -41.01757812 69.90625 C-40.58155273 71.44539063 -40.58155273 71.44539063 -40.13671875 73.015625 C-39.88237061 73.93762695 -39.62802246 74.85962891 -39.3659668 75.80957031 C-37.77669287 79.35358203 -36.33278797 81.11704959 -33.1875 83.4375 C-29.94270805 84.15724404 -26.78213107 84.13886198 -23.46875 84.1015625 C-22.53325317 84.10634613 -21.59775635 84.11112976 -20.63391113 84.11605835 C-18.66038324 84.1194536 -16.68679882 84.11027739 -14.71337891 84.08935547 C-11.69696344 84.06258399 -8.68426883 84.08911536 -5.66796875 84.12109375 C-3.74738764 84.11778958 -1.82680884 84.11138321 0.09375 84.1015625 C1.44237122 84.11674423 1.44237122 84.11674423 2.8182373 84.13223267 C7.16575179 84.05108363 9.21530487 83.8773202 12.80029297 81.23706055 C14.82372114 78.42188816 15.83660817 76.31215937 16.7265625 72.98046875 C17.01273437 71.94986328 17.29890625 70.91925781 17.59375 69.85742188 C17.8721875 68.79072266 18.150625 67.72402344 18.4375 66.625 C23.5781119 47.6718881 23.5781119 47.6718881 28.8125 42.4375 C29.47935938 39.89422892 29.47935938 39.89422892 28.8125 37.4375 C27.37258963 35.43786981 27.37258963 35.43786981 24.8125 34.4375 C22.09170155 34.19865128 19.55435932 34.30040703 16.8125 34.4375 C16.73 33.4475 16.6475 32.4575 16.5625 31.4375 C16.04402738 27.56466662 14.52626205 24.67011092 12.5546875 21.33203125 C11.6129366 18.92808817 12.02195237 17.85648107 12.8125 15.4375 C13.1621418 13.10655466 13.49804487 10.77345238 13.8125 8.4375 C10.86035607 5.88901398 9.04711163 5.05558075 5.15234375 5.0390625 C3.8384668 5.03326172 3.8384668 5.03326172 2.49804688 5.02734375 C1.13776367 5.04474609 1.13776367 5.04474609 -0.25 5.0625 C-1.16072266 5.05089844 -2.07144531 5.03929687 -3.00976562 5.02734375 C-3.88439453 5.03121094 -4.75902344 5.03507813 -5.66015625 5.0390625 C-6.45687744 5.04244629 -7.25359863 5.04583008 -8.07446289 5.04931641 C-10.71743534 5.53485381 -11.6423119 6.25691039 -13.1875 8.4375 Z " fill="#EDEDED" transform="translate(61.1875,5.5625)"/>
<path d="M0 0 C1.18613892 0.00785522 1.18613892 0.00785522 2.39624023 0.01586914 C3.67724609 0.02070313 3.67724609 0.02070313 4.98413086 0.02563477 C5.88196289 0.03401367 6.77979492 0.04239258 7.70483398 0.05102539 C8.6065332 0.05553711 9.50823242 0.06004883 10.43725586 0.06469727 C12.67234712 0.07652315 14.90730835 0.09300319 17.14233398 0.11352539 C17.63733398 2.58852539 17.63733398 2.58852539 18.14233398 5.11352539 C17.15233398 5.44352539 16.16233398 5.77352539 15.14233398 6.11352539 C16.96119275 11.81812788 19.00720597 17.34980069 21.37280273 22.85180664 C22.14233398 25.11352539 22.14233398 25.11352539 22.14233398 29.11352539 C25.44233398 29.11352539 28.74233398 29.11352539 32.14233398 29.11352539 C32.52452166 30.76967196 32.856285 32.43809563 33.14233398 34.11352539 C32.14233398 35.11352539 32.14233398 35.11352539 29.28868103 35.23377991 C28.01182938 35.2315593 26.73497772 35.22933868 25.41943359 35.22705078 C24.71703049 35.22719681 24.01462738 35.22734283 23.29093933 35.22749329 C20.9588212 35.22679411 18.62678199 35.21900156 16.29467773 35.21118164 C14.68184961 35.20931748 13.06902091 35.20789357 11.45619202 35.20689392 C7.20318041 35.20306862 2.95020275 35.19323824 -1.30279541 35.18218994 C-5.63944032 35.17197608 -9.97609068 35.16739636 -14.31274414 35.16235352 C-22.82773371 35.15161598 -31.34269564 35.13453942 -39.85766602 35.11352539 C-40.18766602 33.46352539 -40.51766602 31.81352539 -40.85766602 30.11352539 C-38.87766602 29.45352539 -36.89766602 28.79352539 -34.85766602 28.11352539 C-34.46080536 23.6157713 -35.83817819 21.06835572 -37.85766602 17.11352539 C-37.85766602 15.79352539 -37.85766602 14.47352539 -37.85766602 13.11352539 C-33.96537079 11.81609365 -29.90488221 11.52640505 -25.85766602 12.11352539 C-22.67016602 13.98852539 -22.67016602 13.98852539 -19.85766602 16.11352539 C-17.23353359 17.4255916 -15.65676965 18.18403454 -12.73266602 17.92602539 C-10.75154121 17.22484493 -10.75154121 17.22484493 -9.42016602 15.48852539 C-8.90454102 15.03477539 -8.38891602 14.58102539 -7.85766602 14.11352539 C-5.17016602 14.42602539 -5.17016602 14.42602539 -2.85766602 15.11352539 C-1.34943397 12.71809802 -0.80451977 11.52806608 -1.17016602 8.67602539 C-1.39704102 7.83040039 -1.62391602 6.98477539 -1.85766602 6.11352539 C-2.23434946 4.45611824 -2.57824147 2.79007268 -2.85766602 1.11352539 C-1.85766602 0.11352539 -1.85766602 0.11352539 0 0 Z " fill="#95C162" transform="translate(53.857666015625,13.886474609375)"/>
<path d="M0 0 C0.87462891 -0.00386719 1.74925781 -0.00773438 2.65039062 -0.01171875 C3.56111328 -0.00011719 4.47183594 0.01148438 5.41015625 0.0234375 C6.77043945 0.00603516 6.77043945 0.00603516 8.15820312 -0.01171875 C9.47208008 -0.00591797 9.47208008 -0.00591797 10.8125 0 C11.61034912 0.00338379 12.40819824 0.00676758 13.23022461 0.01025391 C15.97345346 0.48512967 17.38846841 1.59922863 19.47265625 3.3984375 C18.56527158 10.13900933 18.56527158 10.13900933 17.78515625 12.32421875 C17.33807074 15.2917488 18.44589965 16.76059189 19.91015625 19.3359375 C21.9488011 22.92995172 22.77713689 25.2471039 22.47265625 29.3984375 C23.71015625 29.3365625 24.94765625 29.2746875 26.22265625 29.2109375 C29.25476927 29.19480924 30.29513921 29.29192727 32.97265625 30.8984375 C33.46765625 31.3934375 33.96265625 31.8884375 34.47265625 32.3984375 C34.22265625 35.7109375 34.22265625 35.7109375 33.47265625 39.3984375 C32.82941406 39.87740479 32.18617187 40.35637207 31.5234375 40.84985352 C29.03219217 42.73104031 28.68626605 43.88056682 27.91015625 46.86328125 C27.67280762 47.74064941 27.43545898 48.61801758 27.19091797 49.52197266 C26.83537842 50.91488525 26.83537842 50.91488525 26.47265625 52.3359375 C25.95596494 54.23869952 25.43774267 56.14104649 24.91796875 58.04296875 C24.54720215 59.42282959 24.54720215 59.42282959 24.16894531 60.83056641 C23.28691986 64.08342185 22.35277342 67.30627112 21.34765625 70.5234375 C21.07695313 71.41289063 20.80625 72.30234375 20.52734375 73.21875 C19.15049589 76.06423558 18.27304526 76.85977407 15.47265625 78.3984375 C12.26899787 78.872112 9.08576017 78.8664671 5.8515625 78.8671875 C4.44619484 78.87860779 4.44619484 78.87860779 3.01243591 78.89025879 C1.03297589 78.9010535 -0.94654106 78.90391545 -2.92602539 78.89941406 C-5.95100085 78.89844195 -8.97343774 78.9400656 -11.99804688 78.984375 C-13.9231718 78.98958234 -15.84830553 78.99227019 -17.7734375 78.9921875 C-18.67565536 79.00858276 -19.57787323 79.02497803 -20.50743103 79.04187012 C-24.87104543 78.99396417 -26.91496808 78.84898747 -30.51513672 76.20019531 C-32.52498366 73.40172364 -33.5650499 71.28075958 -34.4765625 67.9765625 C-34.91258789 66.43742187 -34.91258789 66.43742187 -35.35742188 64.8671875 C-35.64037109 63.805 -35.92332031 62.7428125 -36.21484375 61.6484375 C-36.50939453 60.60171875 -36.80394531 59.555 -37.10742188 58.4765625 C-38.42587986 53.73603942 -39.61813221 49.02745316 -40.546875 44.1953125 C-40.87042969 42.94234375 -41.19398437 41.689375 -41.52734375 40.3984375 C-42.51734375 40.0684375 -43.50734375 39.7384375 -44.52734375 39.3984375 C-45.86562268 32.95036628 -45.86562268 32.95036628 -44.33984375 30.4609375 C-42.52734375 29.3984375 -42.52734375 29.3984375 -38.52734375 29.3984375 C-38.81609375 28.80675781 -39.10484375 28.21507813 -39.40234375 27.60546875 C-43.46796691 18.95190278 -43.46796691 18.95190278 -42.52734375 15.3984375 C-39.62136613 12.5893258 -36.74178416 12.12579466 -32.83984375 11.8984375 C-27.69145939 12.01387213 -24.11576815 13.7809642 -19.75390625 16.40234375 C-17.60077453 17.58811141 -17.60077453 17.58811141 -15.36328125 17.17578125 C-13.32820909 16.44960139 -13.32820909 16.44960139 -11.52734375 14.3984375 C-8.90234375 14.2734375 -8.90234375 14.2734375 -6.52734375 14.3984375 C-6.40101957 10.44832119 -6.40101957 10.44832119 -7.21484375 6.8359375 C-7.52734375 3.3984375 -7.52734375 3.3984375 -6.32983398 1.70849609 C-4.06656869 0.06354396 -2.78086974 0.01181075 0 0 Z M-3.52734375 3.3984375 C-3.85734375 5.0484375 -4.18734375 6.6984375 -4.52734375 8.3984375 C-3.86734375 9.0584375 -3.20734375 9.7184375 -2.52734375 10.3984375 C-2.8338642 13.3410338 -3.20005529 15.74386058 -4.52734375 18.3984375 C-5.26984375 18.1509375 -6.01234375 17.9034375 -6.77734375 17.6484375 C-7.68484375 17.5659375 -8.59234375 17.4834375 -9.52734375 17.3984375 C-10.88102971 18.71110268 -12.21533971 20.04411075 -13.52734375 21.3984375 C-15.33984375 21.3359375 -15.33984375 21.3359375 -17.52734375 20.3984375 C-18.70296875 19.9240625 -19.87859375 19.4496875 -21.08984375 18.9609375 C-24.52734375 17.3984375 -24.52734375 17.3984375 -27.52734375 15.3984375 C-31.71308351 15.19911656 -35.5131011 15.06035662 -39.52734375 16.3984375 C-38.9455953 21.7071224 -38.9455953 21.7071224 -36.52734375 26.3984375 C-36.40234375 29.0859375 -36.40234375 29.0859375 -36.52734375 31.3984375 C-38.50734375 32.0584375 -40.48734375 32.7184375 -42.52734375 33.3984375 C-42.18289494 35.87110515 -42.18289494 35.87110515 -41.52734375 38.3984375 C-40.86734375 38.7284375 -40.20734375 39.0584375 -39.52734375 39.3984375 C-38.66327009 41.88435469 -37.91402362 44.33044365 -37.21484375 46.86328125 C-37.00045654 47.61178848 -36.78606934 48.36029572 -36.56518555 49.13148499 C-35.87841609 51.53091234 -35.20188975 53.93304728 -34.52734375 56.3359375 C-33.85235709 58.7351166 -33.17504854 61.13349401 -32.48950195 63.52967834 C-32.06246043 65.02254835 -31.64153539 66.51718405 -31.22729492 68.01365662 C-30.08753231 72.09408753 -30.08753231 72.09408753 -27.52734375 75.3984375 C-25.6515056 75.70302294 -25.6515056 75.70302294 -23.49243164 75.65722656 C-22.24587547 75.66668304 -22.24587547 75.66668304 -20.97413635 75.67633057 C-20.07517136 75.6722821 -19.17620636 75.66823364 -18.25 75.6640625 C-17.32771103 75.66597595 -16.40542206 75.6678894 -15.45518494 75.66986084 C-13.50242846 75.67122329 -11.54966295 75.66752267 -9.59692383 75.65917969 C-6.60542447 75.64849316 -3.61452732 75.65906669 -0.62304688 75.671875 C1.27213674 75.67055318 3.16731999 75.66799031 5.0625 75.6640625 C6.40791115 75.67013519 6.40791115 75.67013519 7.78050232 75.67633057 C8.61469193 75.67002625 9.44888153 75.66372192 10.30834961 75.65722656 C11.04178085 75.65563538 11.7752121 75.65404419 12.53086853 75.65240479 C14.79693583 75.50155321 14.79693583 75.50155321 17.47265625 73.3984375 C18.60081942 70.6129086 18.60081942 70.6129086 19.4453125 67.2890625 C19.78755859 66.05929688 20.12980469 64.82953125 20.48242188 63.5625 C20.83374229 62.25792256 21.18465019 60.95323397 21.53515625 59.6484375 C21.88890364 58.35908087 22.24371014 57.07001432 22.59960938 55.78125 C23.25840837 53.39512736 23.91203494 51.00756636 24.55883789 48.61816406 C27.10873478 39.6339161 27.10873478 39.6339161 29.59765625 38.0234375 C30.21640625 37.8171875 30.83515625 37.6109375 31.47265625 37.3984375 C31.14265625 35.7484375 30.81265625 34.0984375 30.47265625 32.3984375 C27.17265625 32.3984375 23.87265625 32.3984375 20.47265625 32.3984375 C20.37984375 31.00625 20.37984375 31.00625 20.28515625 29.5859375 C19.66027731 25.0066008 17.65528895 21.15854688 15.62890625 17.046875 C14.50680486 14.47665626 13.9112014 12.15927856 13.47265625 9.3984375 C14.46265625 9.0684375 15.45265625 8.7384375 16.47265625 8.3984375 C15.97765625 5.9234375 15.97765625 5.9234375 15.47265625 3.3984375 C9.20265625 3.3984375 2.93265625 3.3984375 -3.52734375 3.3984375 Z " fill="#484273" transform="translate(55.52734375,10.6015625)"/>
<path d="M0 0 C6.27 0 12.54 0 19 0 C19.33 1.65 19.66 3.3 20 5 C19.01 5.33 18.02 5.66 17 6 C18.81885876 11.70460249 20.86487199 17.2362753 23.23046875 22.73828125 C24 25 24 25 24 29 C12.67336556 30.63698804 12.67336556 30.63698804 8.28955078 27.95263672 C4.76448745 25.01562245 1.88164587 21.5540299 -1 18 C-1.66 17.34 -2.32 16.68 -3 16 C-2.525625 15.62875 -2.05125 15.2575 -1.5625 14.875 C0.56305786 12.32433057 0.79107816 10.27310883 1 7 C0.34 6.34 -0.32 5.68 -1 5 C-0.67 3.35 -0.34 1.7 0 0 Z " fill="#D6EBFC" transform="translate(52,14)"/>
<path d="M0 0 C22.11 0 44.22 0 67 0 C66.67 1.65 66.34 3.3 66 5 C44.55 5 23.1 5 1 5 C0.67 3.35 0.34 1.7 0 0 Z " fill="#607B58" transform="translate(16,49)"/>
<path d="M0 0 C0.928125 0.70125 1.85625 1.4025 2.8125 2.125 C4.45869113 2.84073527 6.11978055 3.5275696 7.8125 4.125 C7.8125 7.83986131 7.00114053 8.59133404 4.5625 11.3125 C0.88179107 14.93362911 -1.54747099 15.65545041 -6.6875 15.625 C-8.52398805 15.49771865 -10.35971948 15.34433366 -12.1875 15.125 C-12.1565625 14.19945313 -12.125625 13.27390625 -12.09375 12.3203125 C-12.2045002 8.5455764 -13.45903576 6.4378898 -15.1875 3.125 C-15.1875 1.805 -15.1875 0.485 -15.1875 -0.875 C-9.77237789 -2.6800407 -4.8836176 -2.87271623 0 0 Z " fill="#EB8632" transform="translate(31.1875,27.875)"/>
<path d="M0 0 C2.09933151 1.70396669 2.92588781 2.60607032 3.43359375 5.3046875 C3.44025341 9.68674067 3.42563853 12.29060245 1.125 16.125 C-1 18 -1 18 -3 18 C-3.09667969 18.90492187 -3.19335938 19.80984375 -3.29296875 20.7421875 C-4.09645464 26.33422413 -5.74650319 31.70802992 -7.3125 37.125 C-7.60833984 38.19621094 -7.90417969 39.26742187 -8.20898438 40.37109375 C-11.53912687 51.92230077 -11.53912687 51.92230077 -16.83314514 55.10050964 C-19.28060149 56.11648142 -21.04571811 56.25963995 -23.68920898 56.2746582 C-24.61374374 56.28419022 -25.5382785 56.29372223 -26.49082947 56.30354309 C-27.48256668 56.30263168 -28.47430389 56.30172028 -29.49609375 56.30078125 C-30.5217897 56.30506638 -31.54748566 56.3093515 -32.60426331 56.31376648 C-34.7720567 56.31950583 -36.93986936 56.32001296 -39.10766602 56.31567383 C-42.42172144 56.31251504 -45.73488312 56.33597446 -49.04882812 56.36132812 C-51.15624887 56.36360129 -53.26367202 56.36430454 -55.37109375 56.36328125 C-56.85566322 56.37709587 -56.85566322 56.37709587 -58.370224 56.39118958 C-63.39740776 56.35743544 -66.91007429 56.29141382 -71 53 C-69 52 -69 52 -66.96875 52.42480469 C-62.80886657 53.2307821 -58.72830946 53.18263976 -54.5 53.203125 C-53.13004883 53.21167511 -53.13004883 53.21167511 -51.73242188 53.22039795 C-49.80600128 53.22982102 -47.87956477 53.23637119 -45.953125 53.24023438 C-43.01013204 53.24996649 -40.06783006 53.28102588 -37.125 53.3125 C-35.25000413 53.3190282 -33.37500329 53.32427939 -31.5 53.328125 C-30.62279297 53.3404718 -29.74558594 53.3528186 -28.84179688 53.36553955 C-24.07414953 53.34818274 -20.82595428 53.16033816 -17 50 C-14.08315152 46.91162154 -13.20913825 43.84202278 -12.16796875 39.765625 C-11.84376953 38.55132812 -11.51957031 37.33703125 -11.18554688 36.0859375 C-10.52473027 33.54612575 -9.8709798 31.00446411 -9.22460938 28.4609375 C-7.43640712 21.81402458 -5.67613061 16.89245303 -1.21508789 11.62792969 C0.55086487 9.26197169 0.61584254 7.39011045 0.375 4.5 C0.32085937 3.6440625 0.26671875 2.788125 0.2109375 1.90625 C0.10652344 0.96265625 0.10652344 0.96265625 0 0 Z " fill="#080808" transform="translate(94,40)"/>
<path d="M0 0 C0.99 0.33 1.98 0.66 3 1 C3 1.66 3 2.32 3 3 C3.56203125 3.23589844 4.1240625 3.47179687 4.703125 3.71484375 C7.53265686 5.29803419 9.48023615 7.25193974 11.75 9.5625 C12.54921875 10.36816406 13.3484375 11.17382812 14.171875 12.00390625 C16 14 16 14 16 15 C5.77 15 -4.46 15 -15 15 C-8.25 7.125 -8.25 7.125 -4.125 3.5625 C-3.34382813 2.88316406 -2.56265625 2.20382813 -1.7578125 1.50390625 C-1.17773438 1.00761719 -0.59765625 0.51132812 0 0 Z " fill="#FDE184" transform="translate(46,28)"/>
<path d="M0 0 C6.93 0 13.86 0 21 0 C23 6 23 6 23 10 C11.05142324 11.37672079 11.05142324 11.37672079 6.06640625 8.03125 C0 1.8969 0 1.8969 0 0 Z " fill="#FBFBFB" transform="translate(53,33)"/>
<path d="M0 0 C6.27 0 12.54 0 19 0 C19.33 1.65 19.66 3.3 20 5 C17.81893397 7.18106603 13.09364237 6.51329642 10.0625 6.6875 C9.22525391 6.74744141 8.38800781 6.80738281 7.52539062 6.86914062 C6.32366211 6.9397168 6.32366211 6.9397168 5.09765625 7.01171875 C4.36039307 7.05772217 3.62312988 7.10372559 2.86352539 7.15112305 C1 7 1 7 -1 5 C-0.67 3.35 -0.34 1.7 0 0 Z " fill="#71BAF8" transform="translate(52,14)"/>
<path d="M0 0 C1.2375 1.0209375 1.2375 1.0209375 2.5 2.0625 C2.5 2.3925 2.5 2.7225 2.5 3.0625 C1.57767578 3.33513672 1.57767578 3.33513672 0.63671875 3.61328125 C-0.17152344 3.86464844 -0.97976562 4.11601563 -1.8125 4.375 C-3.01326172 4.74044922 -3.01326172 4.74044922 -4.23828125 5.11328125 C-7.89056589 6.64610537 -9.32192241 8.79538361 -11.5 12.0625 C-12.17595315 10.65024074 -12.84040059 9.23247095 -13.5 7.8125 C-13.87125 7.02359375 -14.2425 6.2346875 -14.625 5.421875 C-15.5 3.0625 -15.5 3.0625 -15.5 -0.9375 C-10.20398713 -2.70283762 -4.74108521 -3.10080455 0 0 Z " fill="#92BC62" transform="translate(31.5,27.9375)"/>
<path d="M0 0 C1.98 0 3.96 0 6 0 C6 5.94 6 11.88 6 18 C4.02 18 2.04 18 0 18 C0 12.06 0 6.12 0 0 Z " fill="#FFFFFF" transform="translate(62,59)"/>
<path d="M0 0 C1.98 0 3.96 0 6 0 C6 5.94 6 11.88 6 18 C4.02 18 2.04 18 0 18 C0 12.06 0 6.12 0 0 Z " fill="#FFFFFF" transform="translate(52,59)"/>
<path d="M0 0 C1.98 0 3.96 0 6 0 C6 5.94 6 11.88 6 18 C4.02 18 2.04 18 0 18 C0 12.06 0 6.12 0 0 Z " fill="#EF8630" transform="translate(41,59)"/>
<path d="M0 0 C1.98 0 3.96 0 6 0 C6 5.94 6 11.88 6 18 C4.02 18 2.04 18 0 18 C0 12.06 0 6.12 0 0 Z " fill="#EF8630" transform="translate(31,59)"/>
<path d="M0 0 C4.455 2.97 4.455 2.97 9 6 C7.68 8.31 6.36 10.62 5 13 C1.55834073 8.77614544 0 5.49939416 0 0 Z " fill="#759856" transform="translate(16,27)"/>
<path d="M0 0 C1.49609375 1.06640625 1.49609375 1.06640625 3 3 C3.22265625 6.21484375 3.22265625 6.21484375 3.0625 9.9375 C2.879011 14.41180875 2.88814417 17.0829894 5 21 C4.67 21.99 4.34 22.98 4 24 C3.13116294 22.42466914 2.28040932 20.83935491 1.4375 19.25 C0.96183594 18.36828125 0.48617187 17.4865625 -0.00390625 16.578125 C-1.13030589 13.6627377 -0.94421816 12.87761724 0 10 C0.06624507 8.25113019 0.08552595 6.49997252 0.0625 4.75 C0.05347656 3.85796875 0.04445313 2.9659375 0.03515625 2.046875 C0.02355469 1.37140625 0.01195313 0.6959375 0 0 Z " fill="#050505" transform="translate(79,11)"/>
</svg>
